<?xml version="1.0" encoding="UTF-8"?>
<svg width="24px" height="24px" viewBox="0 0 24 24" version="1.1" xmlns="http://www.w3.org/2000/svg" xmlns:xlink="http://www.w3.org/1999/xlink">
    <!-- Generator: Sketch 55.2 (78181) - https://sketchapp.com -->
    <title>ICONO/ALERTA/error</title>
    <desc>Created with Sketch.</desc>
    <g id="Alertas" stroke="none" stroke-width="1" fill="none" fill-rule="evenodd">
        <g id="ICONO/ALERTA/error" fill="#FFFFFF">
            <path d="M12.0003028,22.8016652 C6.04374921,22.8016652 1.19772928,17.9556453 1.19772928,11.9996972 C1.19772928,6.04374921 6.04374921,1.19772928 12.0003028,1.19772928 C17.9562508,1.19772928 22.8022707,6.04374921 22.8022707,11.9996972 C22.8022707,17.9556453 17.9562508,22.8016652 12.0003028,22.8016652 M12.0003028,0 C5.38312098,0 0,5.38251545 0,11.9996972 C0,18.616879 5.38312098,24 12.0003028,24 C18.6174845,24 24,18.616879 24,11.9996972 C24,5.38251545 18.6174845,0 12.0003028,0" id="Fill-1"></path>
            <path d="M15.0975856,9.28074945 C14.868279,9.02980022 14.4861013,9.01788013 14.2427305,9.25189029 L12.1447278,11.2663852 L10.1127654,9.1816245 C9.87612097,8.9394585 9.49333178,8.9394585 9.25668735,9.1816245 C9.0206544,9.42441788 9.0206544,9.81715343 9.25668735,10.0599468 L11.2605215,12.1158484 L9.19187001,14.1027389 C8.94727628,14.336749 8.93504659,14.7294846 9.16374173,14.9798064 C9.28236969,15.1103 9.44380155,15.1761742 9.60523341,15.1761742 C9.7538241,15.1761742 9.90180331,15.1209654 10.0185968,15.0086656 L12.1165995,12.9935433 L14.1485619,15.0789314 C14.2671899,15.2000144 14.4218954,15.2608696 14.5759895,15.2608696 C14.7313065,15.2608696 14.886012,15.2000144 15.00464,15.0789314 C15.2400615,14.836138 15.2400615,14.4434025 15.00464,14.2006091 L13.0001944,12.1447075 L15.0694573,10.157817 C15.3134396,9.92380685 15.3256693,9.5310713 15.0975856,9.28074945" id="Fill-4"></path>
        </g>
    </g>
</svg>