<?xml version="1.0" encoding="UTF-8"?>
<svg width="24px" height="24px" viewBox="0 0 24 24" version="1.1" xmlns="http://www.w3.org/2000/svg" xmlns:xlink="http://www.w3.org/1999/xlink">
    <!-- Generator: Sketch 55.2 (78181) - https://sketchapp.com -->
    <title>ICONO/ALERTA/informacion</title>
    <desc>Created with Sketch.</desc>
    <g id="Alertas" stroke="none" stroke-width="1" fill="none" fill-rule="evenodd">
        <g id="ICONO/ALERTA/informacion" fill="#FFFFFF">
            <path d="M12,1.19833481 C6.0439017,1.19833481 1.1977595,6.04374921 1.1977595,11.9996972 C1.1977595,17.9556453 6.0439017,22.8016652 12,22.8016652 C17.9560983,22.8016652 22.8022405,17.9556453 22.8022405,11.9996972 C22.8022405,6.04374921 17.9560983,1.19833481 12,1.19833481 M12,24 C5.38265126,24 0,18.616879 0,11.9996972 C0,5.38312098 5.38265126,0 12,0 C18.6173487,0 24,5.38312098 24,11.9996972 C24,18.616879 18.6173487,24 12,24" id="Fill-1"></path>
            <path d="M11.981707,7.27392383 C12.1517132,7.27392383 12.3065082,7.21135881 12.4299864,7.09117996 C12.5539119,6.96920067 12.6196774,6.81256306 12.6196774,6.63837124 C12.6196774,6.46642996 12.555254,6.31024246 12.4322233,6.18511242 C12.1843722,5.93710287 11.7727784,5.93800309 11.530296,6.1896135 C11.4126338,6.312493 11.35,6.46778028 11.35,6.63837124 C11.35,6.81166285 11.4130812,6.96695013 11.5343224,7.08892942 C11.6551163,7.21000849 11.809464,7.27392383 11.981707,7.27392383" id="Fill-4"></path>
            <path d="M12.2093511,8.5 L11.7603263,8.5 C11.5330498,8.5 11.35,8.67882781 11.35,8.89952165 L11.35,17.6549071 C11.35,17.8756009 11.5330498,18.0544287 11.7603263,18.0544287 L12.2093511,18.0544287 C12.4360134,18.0544287 12.6196774,17.8756009 12.6196774,17.6549071 L12.6196774,8.89952165 C12.6196774,8.67882781 12.4360134,8.5 12.2093511,8.5" id="Fill-6"></path>
        </g>
    </g>
</svg>