<?xml version="1.0" encoding="UTF-8"?>
<svg width="24px" height="24px" viewBox="0 0 24 24" version="1.1" xmlns="http://www.w3.org/2000/svg" xmlns:xlink="http://www.w3.org/1999/xlink">
    <!-- Generator: Sketch 55.2 (78181) - https://sketchapp.com -->
    <title>ICONO/ALERTA/exito Copy</title>
    <desc>Created with Sketch.</desc>
    <g id="Alertas" stroke="none" stroke-width="1" fill="none" fill-rule="evenodd">
        <g id="ICONO/ALERTA/exito-Copy" fill="#FFFFFF">
            <path d="M12.0003028,22.8016652 C6.04374921,22.8016652 1.19772928,17.9556453 1.19772928,11.9996972 C1.19772928,6.04374921 6.04374921,1.19772928 12.0003028,1.19772928 C17.9562508,1.19772928 22.8022707,6.04374921 22.8022707,11.9996972 C22.8022707,17.9556453 17.9562508,22.8016652 12.0003028,22.8016652 M12.0003028,0 C5.38312098,0 0,5.38251545 0,11.9996972 C0,18.616879 5.38312098,24 12.0003028,24 C18.6174845,24 24,18.616879 24,11.9996972 C24,5.38251545 18.6174845,0 12.0003028,0" id="Fill-1"></path>
            <path d="M15.3527179,8.70333238 L10.6778276,14.0657066 L8.50996181,11.9688808 C8.27277987,11.742584 7.89466375,11.7477401 7.66722116,11.9837763 C7.43920568,12.2198124 7.44493471,12.5979285 7.68097084,12.8265169 L10.3008573,15.359895 C10.4125734,15.4676008 10.5598096,15.5266098 10.7144934,15.5266098 L10.7351179,15.5266098 L10.7397012,15.5266098 C10.9024057,15.5191621 11.0570896,15.4452575 11.1636496,15.3226563 L16.2516031,9.48649109 C16.4670147,9.2389969 16.4412341,8.86145367 16.1937399,8.64489625 C15.9468186,8.43177625 15.5698483,8.45583819 15.3527179,8.70333238" id="Fill-4"></path>
        </g>
    </g>
</svg>