<?xml version="1.0" encoding="UTF-8"?>
<svg width="24px" height="22px" viewBox="0 0 24 22" version="1.1" xmlns="http://www.w3.org/2000/svg" xmlns:xlink="http://www.w3.org/1999/xlink">
    <!-- Generator: Sketch 55.2 (78181) - https://sketchapp.com -->
    <title>ICONO/ALERTA/en-espera</title>
    <desc>Created with Sketch.</desc>
    <g id="Alertas" stroke="none" stroke-width="1" fill="none" fill-rule="evenodd">
        <g id="ICONO/ALERTA/en-espera" fill="#FFFFFF">
            <path d="M11.9963002,8.17603441 C12.1971459,8.17603441 12.3800211,8.10256718 12.5258985,7.96144667 C12.6723044,7.818212 12.75,7.63427965 12.75,7.4297342 C12.75,7.22783145 12.6738901,7.04442765 12.5285412,6.89749319 C12.2357294,6.60626697 11.7494715,6.60732405 11.4630021,6.9027786 C11.3239958,7.04707035 11.25,7.22941708 11.25,7.4297342 C11.25,7.63322257 11.3245243,7.8155693 11.467759,7.95880397 C11.6104651,8.10098156 11.7928118,8.17603441 11.9963002,8.17603441" id="Fill-1"></path>
            <path d="M12.2365058,9.48266942 L11.8516697,9.48266942 C11.6568826,9.48266942 11.5,9.64007845 11.5,9.8343391 L11.5,17.5410643 C11.5,17.7353249 11.6568826,17.8927339 11.8516697,17.8927339 L12.2365058,17.8927339 C12.4307665,17.8927339 12.5881755,17.7353249 12.5881755,17.5410643 L12.5881755,9.8343391 C12.5881755,9.64007845 12.4307665,9.48266942 12.2365058,9.48266942" id="Fill-3"></path>
            <path d="M22.920661,20.4707984 C22.869614,20.5584661 22.7192472,20.7626541 22.4151846,20.7626541 L1.58467665,20.7626541 C1.28061404,20.7626541 1.13080218,20.5584661 1.07975517,20.4707984 C1.02926302,20.3831308 0.927723865,20.1506449 1.07975517,19.8876419 L11.4944543,1.8480735 C11.6470405,1.58451559 11.8989463,1.55621779 11.9993758,1.55621779 C12.1009149,1.55621779 12.3528208,1.58451559 12.505407,1.8480735 L22.920661,19.8876419 C23.0721374,20.1506449 22.9711531,20.3831308 22.920661,20.4707984 M23.7856858,19.388269 L13.3698769,1.34814575 C13.0835698,0.853211725 12.57199,0.557472 11.9993758,0.557472 C11.4278712,0.557472 10.9157366,0.853211725 10.6299843,1.34814575 L0.214730344,19.388269 C-0.0715767815,19.8837579 -0.0715767815,20.4752373 0.214730344,20.9701713 C0.50103747,21.4656602 1.01317212,21.7613999 1.58467665,21.7613999 L22.4151846,21.7613999 C22.987244,21.7613999 23.4993787,21.4651054 23.7856858,20.9701713 C24.0714381,20.4746824 24.0714381,19.883203 23.7856858,19.388269" id="Fill-5"></path>
        </g>
    </g>
</svg>