<svg xmlns="http://www.w3.org/2000/svg" width="25" height="25" viewBox="0 0 25 25">
    <g fill="none" fill-rule="evenodd">
        <path stroke="#FFF" stroke-width=".8" d="M12.902 22.914c1.404 0 2.542-1.275 2.542-2.906H10.36c0 1.631 1.138 2.906 2.542 2.906zm6.356-12.503c0-3.585-2.166-6.454-5.085-7.159 0 0-1.27-.32-2.542 0-2.91.734-5.084 3.574-5.084 7.16 0 4.72-1.437 6.16-2.205 7.118A1.576 1.576 0 0 0 4 18.532c.004.756.516 1.476 1.276 1.476h15.253c.76 0 1.271-.72 1.275-1.476a1.575 1.575 0 0 0-.342-1.002c-.768-.958-2.204-2.399-2.204-7.119z"/>
        <g transform="translate(12.609 3)">
            <ellipse cx="5.38" cy="5.5" fill="#004D99" stroke="#00C8FF" stroke-width=".8" rx="5.38" ry="5.5"/>
            <path fill="#FFF" fill-rule="nonzero" d="M4.552 5.05h.618c.312-.002.56-.083.742-.242.182-.158.273-.388.273-.689 0-.29-.076-.514-.227-.675-.152-.16-.384-.24-.696-.24-.273 0-.497.079-.672.236a.789.789 0 0 0-.264.616H3.311c0-.312.083-.596.249-.852a1.67 1.67 0 0 1 .693-.6c.297-.143.629-.214.997-.214.607 0 1.084.152 1.43.457.347.305.52.729.52 1.272 0 .273-.087.53-.26.77-.175.242-.4.423-.675.546.334.114.588.294.762.539.174.245.261.537.261.877 0 .546-.187.98-.562 1.304-.374.323-.866.484-1.476.484-.585 0-1.064-.156-1.437-.468-.374-.312-.56-.727-.56-1.245h1.015c0 .268.09.485.27.652.179.167.42.25.724.25.315 0 .563-.083.744-.25.18-.167.271-.41.271-.727 0-.32-.094-.567-.284-.74-.19-.172-.47-.258-.844-.258h-.597V5.05z"/>
        </g>
    </g>
</svg>
