<svg xmlns="http://www.w3.org/2000/svg" viewBox="0 0 100 100"><defs><style>.cls-1{fill:#00377d;}.cls-2{fill:#00c8ff;}.cls-3{fill:none;}</style></defs><title>carro, carrito, chango, carro de compras, shopping cart (color)</title><g id="Light_Theme" data-name="Light Theme"><path class="cls-1" d="M71,52.54H36.18a1.21,1.21,0,0,1,0-2.42H71a1.21,1.21,0,0,1,0,2.42Z"/><path class="cls-2" d="M42.8,74.09A6.18,6.18,0,1,1,49,67.92,6.18,6.18,0,0,1,42.8,74.09Zm0-9.93a3.76,3.76,0,1,0,3.75,3.76A3.77,3.77,0,0,0,42.8,64.16Z"/><path class="cls-2" d="M64.93,74.09a6.18,6.18,0,1,1,6.17-6.17A6.18,6.18,0,0,1,64.93,74.09Zm0-9.93a3.76,3.76,0,1,0,3.75,3.76A3.77,3.77,0,0,0,64.93,64.16Z"/><path class="cls-2" d="M67.85,58.9H39.26a3.17,3.17,0,0,1-3.08-2.41L29.39,28.33h-8a1.21,1.21,0,1,1,0-2.42h9a1.21,1.21,0,0,1,1.18.92l7,29.09a.75.75,0,0,0,.73.56H67.85a.74.74,0,0,0,.73-.57l4.8-19.52a.73.73,0,0,0-.13-.64.74.74,0,0,0-.59-.29H37.83a1.21,1.21,0,0,1,0-2.42H72.66A3.16,3.16,0,0,1,75.73,37l-4.8,19.53A3.17,3.17,0,0,1,67.85,58.9Z"/></g><g id="Marco"><rect class="cls-3" width="100" height="100"/></g></svg>