<svg xmlns="http://www.w3.org/2000/svg" width="14" height="13" viewBox="0 0 14 13">
    <path fill="#FFF" fill-rule="nonzero" d="M12.995 3.481l-1.13 1.13a.294.294 0 0 1-.416 0l-2.721-2.72a.294.294 0 0 1 0-.417l1.13-1.13a1.18 1.18 0 0 1 1.664 0l1.473 1.473c.461.458.461 1.204 0 1.664zM7.757 2.445L1.32 8.882.8 11.86c-.07.402.28.75.682.681l2.978-.522 6.437-6.437a.294.294 0 0 0 0-.417l-2.72-2.72a.297.297 0 0 0-.42 0zM3.832 8.33a.342.342 0 0 1 0-.485L7.607 4.07a.342.342 0 0 1 .486 0 .342.342 0 0 1 0 .485L4.318 8.33a.342.342 0 0 1-.486 0zm-.884 2.062h1.176v.89l-1.58.276-.763-.762.277-1.581h.89v1.177z" opacity=".57"/>
</svg>
