<?xml version="1.0" encoding="UTF-8"?>
<svg width="142px" height="125px" viewBox="0 0 142 125" version="1.1" xmlns="http://www.w3.org/2000/svg" xmlns:xlink="http://www.w3.org/1999/xlink">
    <!-- Generator: Sketch 54.1 (76490) - https://sketchapp.com -->
    <title>Artboard</title>
    <desc>Created with Sketch.</desc>
    <g id="Artboard" stroke="none" stroke-width="1" fill="none" fill-rule="evenodd">
        <path d="M69.7133637,47.4141109 C70.9593518,47.4141109 72.0938568,46.9583416 72.9988377,46.082871 C73.9070974,45.1942847 74.3890981,44.0532219 74.3890981,42.7842813 C74.3890981,41.5317354 73.9169342,40.3939515 73.0152323,39.4824128 C71.1987127,37.67573 68.1821099,37.6822878 66.4049373,39.5152019 C65.5425824,40.410346 65.0835341,41.5415721 65.0835341,42.7842813 C65.0835341,44.046664 65.5458613,45.1778901 66.4344476,46.0664764 C67.3197549,46.9485048 68.450981,47.4141109 69.7133637,47.4141109" id="Fill-1" fill="#FFAA32"></path>
        <path d="M70.9111518,55.5891046 L68.5142641,55.5891046 C67.3010651,55.5891046 66.3239481,56.5695005 66.3239481,57.7794206 L66.3239481,105.779474 C66.3239481,106.989394 67.3010651,107.96979 68.5142641,107.96979 L70.9111518,107.96979 C72.1210718,107.96979 73.1014677,106.989394 73.1014677,105.779474 L73.1014677,57.7794206 C73.1014677,56.5695005 72.1210718,55.5891046 70.9111518,55.5891046" id="Fill-3" fill="#FFAA32"></path>
        <path d="M135.448746,117.677021 C135.147086,118.19509 134.2585,119.401731 132.461654,119.401731 L9.36458446,119.401731 C7.56773843,119.401731 6.68243107,118.19509 6.38077079,117.677021 C6.08238942,117.158952 5.48234777,115.785086 6.38077079,114.23088 L67.9260265,7.62675892 C68.8277285,6.06927375 70.3163564,5.90204903 70.9098402,5.90204903 C71.5098819,5.90204903 72.9985098,6.06927375 73.9002117,7.62675892 L135.448746,114.23088 C136.34389,115.785086 135.747128,117.158952 135.448746,117.677021 M140.560577,111.279856 L79.008763,4.67245548 C77.3168423,1.7476623 74.2936817,-2.84217094e-14 70.9098402,-2.84217094e-14 C67.5325566,-2.84217094e-14 64.506117,1.7476623 62.8174752,4.67245548 L1.26894054,111.279856 C-0.422980181,114.207928 -0.422980181,117.703252 1.26894054,120.628045 C2.96086126,123.556118 5.98730085,125.30378 9.36458446,125.30378 L132.461654,125.30378 C135.842216,125.30378 138.868656,123.552839 140.560577,120.628045 C142.249218,117.699973 142.249218,114.204649 140.560577,111.279856" id="Fill-5" fill="#FFAA32"></path>
    </g>
</svg>