<?xml version="1.0" encoding="UTF-8"?>
<svg width="45px" height="45px" viewBox="0 0 45 45" version="1.1" xmlns="http://www.w3.org/2000/svg" xmlns:xlink="http://www.w3.org/1999/xlink">
    <!-- Generator: Sketch 55.2 (78181) - https://sketchapp.com -->
    <title>Group 2 Copy</title>
    <desc>Created with Sketch.</desc>
    <g id="Pagos" stroke="none" stroke-width="1" fill="none" fill-rule="evenodd">
        <g id="Group-2-Copy" fill="#F01E46">
            <path d="M22.5005614,42.7531222 C11.4561183,42.7531222 2.47078971,33.6668349 2.47078971,22.4994323 C2.47078971,11.3320298 11.4561183,2.2457424 22.5005614,2.2457424 C33.5438817,2.2457424 42.5292103,11.3320298 42.5292103,22.4994323 C42.5292103,33.6668349 33.5438817,42.7531222 22.5005614,42.7531222 M22.5005614,0 C10.2312035,0 0.25,10.0922165 0.25,22.4994323 C0.25,34.9066482 10.2312035,45 22.5005614,45 C34.7699193,45 44.75,34.9066482 44.75,22.4994323 C44.75,10.0922165 34.7699193,0 22.5005614,0" id="Fill-1"></path>
            <g id="Group-2" transform="translate(15.388966, 14.179775)">
                <path d="M1.5227763,13.2814364 C0.595420631,14.2903889 0.0991377741,14.9134889 0.0339277249,15.1507363 C-0.0894974861,15.5997822 0.123832481,16.0061221 0.673917626,16.369756 C0.925479086,16.6267742 1.25702419,16.7675873 1.60534006,16.7675873 L1.65178217,16.7675873 L1.66210264,16.7675873 C2.02847933,16.7498148 2.3767952,16.5734566 2.61674613,16.2808933 L14.0737581,2.35406206 C14.5588202,1.76346708 14.5007675,0.862536303 13.9434621,0.345765693 C13.3874468,-0.16280221 12.5385881,-0.105383253 12.0496559,0.48521173 L1.5227763,13.2814364 Z" id="Fill-4"></path>
                <path d="M1.5227763,13.2814364 C0.595420631,14.2903889 0.0991377741,14.9134889 0.0339277249,15.1507363 C-0.0894974861,15.5997822 0.123832481,16.0061221 0.673917626,16.369756 C0.925479086,16.6267742 1.25702419,16.7675873 1.60534006,16.7675873 L1.65178217,16.7675873 L1.66210264,16.7675873 C2.02847933,16.7498148 2.3767952,16.5734566 2.61674613,16.2808933 L14.0737581,2.35406206 C14.5588202,1.76346708 14.5007675,0.862536303 13.9434621,0.345765693 C13.3874468,-0.16280221 12.5385881,-0.105383253 12.0496559,0.48521173 L1.5227763,13.2814364 Z" id="Fill-4" transform="translate(7.201342, 8.383794) scale(-1, 1) translate(-7.201342, -8.383794) "></path>
            </g>
        </g>
    </g>
</svg>