<?xml version="1.0" encoding="UTF-8"?>
<svg width="46px" height="42px" viewBox="0 0 46 42" version="1.1" xmlns="http://www.w3.org/2000/svg" xmlns:xlink="http://www.w3.org/1999/xlink">
    <!-- Generator: Sketch 60.1 (88133) - https://sketch.com -->
    <title>Group Copy</title>
    <desc>Created with Sketch.</desc>
    <g id="Añadir-cuenta" stroke="none" stroke-width="1" fill="none" fill-rule="evenodd">
        <g id="Secondary-Account---cédula--01" transform="translate(-190.000000, -210.000000)" stroke="#00C8FF">
            <g id="Group-Copy" transform="translate(190.466674, 209.456627)">
                <path d="M22.2086211,0.674490414 L44.3135836,22.7794529 L36.9446586,22.7784904 L36.9452628,40.2407403 C36.9452628,40.7930251 36.4975475,41.2407403 35.9452628,41.2407403 L8.47197939,41.2407403 C7.91969465,41.2407403 7.47197939,40.7930251 7.47197939,40.2407403 L7.47165856,22.7784904 L0.103658555,22.7794529 L22.2086211,0.674490414 Z" id="Combined-Shape"></path>
                <path d="M15.2724429,27.774408 L28.1447993,27.774408 C28.697084,27.774408 29.1447993,28.2221233 29.1447993,28.774408 L29.1447993,39.8347162 C29.1447993,40.3870009 28.697084,40.8347162 28.1447993,40.8347162 L15.2724429,40.8347162 L15.2724429,40.8347162" id="Rectangle-2" transform="translate(22.208621, 34.304562) rotate(-90.000000) translate(-22.208621, -34.304562) "></path>
            </g>
        </g>
    </g>
</svg>