<?xml version="1.0" encoding="UTF-8"?>
<svg width="18px" height="18px" viewBox="0 0 18 18" version="1.1" xmlns="http://www.w3.org/2000/svg" xmlns:xlink="http://www.w3.org/1999/xlink">
    <!-- Generator: Sketch 55.2 (78181) - https://sketchapp.com -->
    <title>@2xGroup 2</title>
    <desc>Created with Sketch.</desc>
    <g id="SIgn-in/Sign-up" stroke="none" stroke-width="1" fill="none" fill-rule="evenodd">
        <g id="Group-2">
            <path d="M18,9.74165457 C18,9.13788099 17.9403409,8.55732946 17.8295455,8 L9,8 L9,11.2936623 L14.0454545,11.2936623 C13.828125,12.3580068 13.1676136,13.2597968 12.1747159,13.8635704 L12.1747159,16 L15.2045455,16 C16.9772727,14.5176584 18,12.3347847 18,9.74165457 L18,9.74165457 Z" id="Shape" fill="#4285F4"></path>
            <path d="M9.04324956,18 C11.4734074,18 13.5108124,17.2261504 15,15.9062851 L12.0911748,13.7379349 C11.2852133,14.2564534 10.2542373,14.5628507 9.04324956,14.5628507 C6.69900643,14.5628507 4.71478667,13.0426487 4.00701344,11 L1,11 L1,13.2390572 C2.48100526,16.0634119 5.52483928,18 9.04324956,18 L9.04324956,18 Z" id="Shape" fill="#34A853"></path>
            <path d="M4,10.6923077 C3.81836945,10.1578947 3.71517028,9.58704453 3.71517028,9 C3.71517028,8.41295547 3.81836945,7.84210526 4,7.30769231 L4,5 L0.965944272,5 C0.350877193,6.20242915 0,7.56275304 0,9 C0,10.437247 0.350877193,11.7975709 0.965944272,13 L4,10.6923077 L4,10.6923077 Z" id="Shape" fill="#FBBC05"></path>
            <path d="M9.00581734,3.43714927 C10.3211169,3.43714927 11.5020361,3.87317621 12.4304828,4.7295174 L15,2.25084175 C13.4485166,0.85634119 11.4205934,0 9.00581734,0 C5.50378127,0 2.47411286,1.9365881 1,4.76094276 L3.9930192,7 C4.69749855,4.95735129 6.672484,3.43714927 9.00581734,3.43714927 L9.00581734,3.43714927 Z" id="Shape" fill="#EA4335"></path>
        </g>
    </g>
</svg>