<svg xmlns="http://www.w3.org/2000/svg" width="22" height="22" viewBox="0 0 22 22">
    <g fill="none" fill-rule="evenodd" stroke="#00C8FF" stroke-linecap="round" stroke-linejoin="round">
        <path stroke-width="1.1" d="M21 11c0 5.523-4.477 10-10 10-5.522 0-10-4.477-10-10S5.478 1 11 1c5.523 0 10 4.477 10 10z"/>
        <path stroke-width=".756" d="M10.775 12.895c0-.912.309-1.609.925-2.09.608-.55 1.017-1.037 1.227-1.455.21-.418.316-.896.316-1.433 0-.786-.217-1.41-.652-1.872-.435-.463-1.02-.695-1.753-.695-.734 0-1.342.232-1.823.695-.482.462-.727 1.072-.736 1.83h.378c.01-.63.207-1.145.593-1.545.385-.4.915-.601 1.588-.601.631 0 1.126.194 1.486.58.36.389.54.92.54 1.597 0 .36-.038.667-.115.924a2.57 2.57 0 0 1-.369.742c-.168.237-.462.553-.883.946-.42.392-.707.756-.86 1.09-.15.334-.231.763-.24 1.287h.378zm-.435 2.734a.373.373 0 0 0 .274.112c.107 0 .2-.037.277-.112a.366.366 0 0 0 .115-.273c0-.108-.038-.2-.115-.277a.378.378 0 0 0-.277-.116.366.366 0 0 0-.274.116.382.382 0 0 0-.112.277.37.37 0 0 0 .112.273z"/>
    </g>
</svg>
