<svg xmlns="http://www.w3.org/2000/svg" xmlns:xlink="http://www.w3.org/1999/xlink" width="16" height="16" viewBox="0 0 16 16">
    <defs>
        <path id="a" d="M8 0a8 8 0 1 1 0 16A8 8 0 0 1 8 0z"/>
        <path id="c" d="M.6 2.221c0-.291.094-.588.285-.892.19-.305.469-.558.838-.76.369-.201.8-.302 1.295-.302.462 0 .867.084 1.217.253.348.168.615.394.803.68.187.285.28.594.28.928 0 .262-.052.49-.157.684a2.136 2.136 0 0 1-.385.519c-.155.152-.434.408-.837.769a3.285 3.285 0 0 0-.278.278 1.153 1.153 0 0 0-.25.446c-.018.066-.046.18-.082.343-.055.296-.207.43-.483.43a.497.497 0 0 1-.358-.138c-.094-.09-.142-.228-.142-.422 0-.262.04-.487.12-.676.08-.191.187-.358.32-.501a7.82 7.82 0 0 1 .564-.537c.212-.186.366-.326.461-.422.101-.101.186-.213.255-.337a.864.864 0 0 0 .11-.426.978.978 0 0 0-.328-.744c-.216-.2-.495-.3-.83-.3-.388 0-.683.101-.876.307-.183.195-.335.477-.458.846-.1.332-.273.484-.535.484a.518.518 0 0 1-.389-.162.493.493 0 0 1-.16-.348zM2.9 7.52a.669.669 0 0 1-.455-.169c-.125-.108-.188-.26-.188-.464a.627.627 0 0 1 .643-.628.6.6 0 0 1 .447.181.6.6 0 0 1 .181.447c0 .201-.062.352-.186.463a.642.642 0 0 1-.442.17z"/>
    </defs>
    <g fill="none" fill-rule="evenodd">
        <g>
            <mask id="b" fill="#fff">
                <use xlink:href="#a"/>
            </mask>
            <path fill="#00377D" fill-opacity=".6" d="M-5-5h26v26H-5z" mask="url(#b)"/>
        </g>
        <g transform="translate(5 4)">
            <mask id="d" fill="#fff">
                <use xlink:href="#c"/>
            </mask>
            <path fill="#FFF" d="M-4.4-4.733h14.718V12.52H-4.4z" mask="url(#d)"/>
        </g>
    </g>
</svg>
