<svg xmlns="http://www.w3.org/2000/svg" width="24" height="24" viewBox="0 0 24 24">
    <path fill="none" fill-rule="evenodd" stroke="#FFF" stroke-linecap="round" stroke-linejoin="round" stroke-width=".85" d="M15.826 22h3.776c.221 0 .4-.192.4-.428v-7.755c0-.236.18-.428.4-.428H21.6c.359 0 .536-.466.28-.734l-9.1-9.533a.381.381 0 0 0-.559 0l-9.099 9.533c-.256.268-.079.734.28.734h1.196c.222 0 .4.192.4.428v7.755c0 .236.18.428.4.428h3.776c.22 0 .4-.192.4-.428v-6.307c0-.236.179-.428.4-.428h5.052c.221 0 .4.192.4.428v6.307c0 .236.18.428.4.428z"/>
</svg>
