<?xml version="1.0" encoding="UTF-8"?>
<svg width="22px" height="14px" viewBox="0 0 22 14" version="1.1" xmlns="http://www.w3.org/2000/svg" xmlns:xlink="http://www.w3.org/1999/xlink">
    <!-- Generator: Sketch 54.1 (76490) - https://sketchapp.com -->
    <title>Artboard</title>
    <desc>Created with Sketch.</desc>
    <g id="Artboard" stroke="none" stroke-width="1" fill="none" fill-rule="evenodd" opacity="0.611774554">
        <g id="Group-2" transform="translate(1.000000, 1.000000)">
            <circle id="Oval" stroke="#00377B" cx="10.1791559" cy="5.77359197" r="5.08068728"></circle>
            <path d="M10.8574377,3.57482928 C10.450284,3.75865549 10.1669265,4.16822474 10.1669265,4.64397568 C10.1669265,5.29151093 10.6918576,5.81644197 11.3393928,5.81644197 C11.8151438,5.81644197 12.224713,5.53308446 12.4085392,5.12593079 C12.4757051,5.34422885 12.5118591,5.5761133 12.5118591,5.81644197 C12.5118591,7.11151248 11.461997,8.16137457 10.1669265,8.16137457 C8.87185602,8.16137457 7.82199394,7.11151248 7.82199394,5.81644197 C7.82199394,4.52137146 8.87185602,3.47150938 10.1669265,3.47150938 C10.4072552,3.47150938 10.6391397,3.5076634 10.8574377,3.57482928 Z" id="Combined-Shape" fill="#073D7F"></path>
            <path d="M10.3623376,12.4594983 C14.8766198,12.4594983 19.742068,8.5852602 19.742068,6.49102474 C19.742068,4.39678928 14.9722808,0.149521543 10.3623376,0.149521543 C5.75239435,0.149521543 0.200963018,3.88211857 0.200963018,6.49102474 C0.200963018,9.09993091 5.84805534,12.4594983 10.3623376,12.4594983 Z" id="Oval-4" stroke="#00377B"></path>
        </g>
    </g>
</svg>