<svg xmlns="http://www.w3.org/2000/svg" width="23" height="15" viewBox="0 0 23 15">
    <g fill="#00377D" fill-rule="nonzero">
        <path d="M11.569 14.928c-.591.002-1.126-.317-1.353-.808-.228-.49-.105-1.057.312-1.433.418-.377 1.046-.49 1.593-.287.546.203.903.682.903 1.214-.003.722-.652 1.308-1.455 1.314zM21.936 5.814a.736.736 0 0 1-.529-.223C18.993 2.894 15.35 1.325 11.5 1.325c-3.85 0-7.493 1.569-9.907 4.266a.738.738 0 0 1-.663.226.68.68 0 0 1-.539-.414.58.58 0 0 1 .144-.624C3.243 1.837 7.253.115 11.5.072c4.247.043 8.257 1.765 10.965 4.707a.592.592 0 0 1 .177.471.614.614 0 0 1-.257.44.744.744 0 0 1-.449.124zM17.118 9.916a.718.718 0 0 1-.523-.218c-1.251-1.374-3.12-2.17-5.095-2.17-1.974 0-3.844.796-5.095 2.17a.737.737 0 0 1-.666.229.678.678 0 0 1-.54-.42.58.58 0 0 1 .154-.626c1.514-1.65 3.768-2.606 6.147-2.606 2.379 0 4.633.956 6.147 2.606a.588.588 0 0 1-.075.885.762.762 0 0 1-.454.15z"/>
    </g>
</svg>
