<?xml version="1.0" encoding="UTF-8"?>
<svg width="18px" height="14px" viewBox="0 0 18 14" version="1.1" xmlns="http://www.w3.org/2000/svg" xmlns:xlink="http://www.w3.org/1999/xlink">
    <!-- Generator: Sketch 55.2 (78181) - https://sketchapp.com -->
    <title>message icon_22</title>
    <desc>Created with Sketch.</desc>
    <g id="SIgn-in/Sign-up" stroke="none" stroke-width="1" fill="none" fill-rule="evenodd">
        <g id="message-icon_22" fill="#FFFFFF" fill-rule="nonzero">
            <path d="M16.550938,0 L1.4533365,0 C0.64998997,0.00245514744 0,0.681833329 0,1.51903861 L0,12.4997723 C0.00162357262,13.2653064 0.552653944,13.9084689 1.28235574,13.9965376 L1.28235574,13.9965376 C1.3378362,14.0011541 1.39358152,14.0011541 1.44906198,13.9965376 L16.550938,13.9965376 C16.6064272,14.0009208 16.6621551,14.0009208 16.7176442,13.9965376 L16.7176442,13.9965376 C17.4464004,13.9065726 17.9964617,13.2645412 18,12.4997723 L18,1.51903861 C18,0.683563776 17.3526137,0.00490014553 16.550938,0 L16.550938,0 Z M16.97839,12.4997723 C16.9768346,12.621687 16.9273971,12.7376091 16.8416053,12.8205077 L11.4685348,7.42591602 L16.9698409,1.93332187 L16.97839,12.4997723 Z M1.04298266,12.4997723 L1.04298266,1.93332187 L6.53573973,7.42591602 L1.17121824,12.8205077 C1.08542647,12.7376091 1.03598897,12.621687 1.03443363,12.4997723 L1.04298266,12.4997723 Z M9.73735454,7.65755827 C9.3286827,8.07406912 8.67559181,8.07406912 8.26691997,7.65755827 L1.6542389,1.0780274 L16.3500356,1.0780274 L9.73735454,7.65755827 Z M7.29232961,8.16984402 L7.55734979,8.43266889 C8.36532262,9.25140942 9.65177542,9.25140942 10.4597483,8.43266889 L10.7119449,8.16984402 L15.4609356,12.9363288 L2.54333887,12.9363288 L7.29232961,8.16984402 Z" id="Shape"></path>
        </g>
    </g>
</svg>