<svg xmlns="http://www.w3.org/2000/svg" width="17" height="30" viewBox="0 0 17 30">
    <g fill="#00C8FF" fill-rule="nonzero">
        <path d="M14.03 29.02H2.97c-1.49 0-2.698-1.189-2.698-2.655V2.752C.272 1.286 1.48.098 2.969.098h11.062c1.49 0 2.697 1.188 2.697 2.654v23.613c0 1.466-1.208 2.655-2.697 2.655zM2.97 1.447c-.733 0-1.327.585-1.327 1.305v23.613c0 .346.14.678.389.923.248.245.586.382.937.382h11.062c.732 0 1.326-.584 1.326-1.305V2.752c0-.72-.594-1.305-1.326-1.305H2.969z"/>
        <path d="M9.724 25.534H7.259a.68.68 0 0 1-.686-.675.68.68 0 0 1 .686-.674h2.465a.68.68 0 0 1 .686.674.68.68 0 0 1-.686.675z"/>
    </g>
</svg>
