<?xml version="1.0" encoding="UTF-8"?>
<svg width="27px" height="42px" viewBox="0 0 27 42" version="1.1" xmlns="http://www.w3.org/2000/svg" xmlns:xlink="http://www.w3.org/1999/xlink">
    <!-- Generator: Sketch 60.1 (88133) - https://sketch.com -->
    <title>Shape</title>
    <desc>Created with Sketch.</desc>
    <g id="Añadir-cuenta" stroke="none" stroke-width="1" fill="none" fill-rule="evenodd">
        <g id="Secondary-Account-04" transform="translate(-90.000000, -215.000000)" fill-rule="nonzero" stroke="#00C8FF">
            <path d="M112.41349,215.823841 L94.6426742,215.823841 C92.5403232,215.823841 90.8346422,217.529522 90.8346422,219.631873 L90.8346422,252.634817 C90.8346422,254.737168 92.5403232,256.442849 94.6426742,256.442849 L112.41349,256.442849 C114.515841,256.442849 116.221522,254.737168 116.221522,252.634817 L116.221522,219.631873 C116.221522,217.529522 114.515841,215.823841 112.41349,215.823841 Z M103.528082,252.291577 C102.12387,252.291577 100.989394,251.1571 100.989394,249.752889 C100.989394,248.348677 102.12387,247.214201 103.528082,247.214201 C104.932294,247.214201 106.06677,248.348677 106.06677,249.752889 C106.06677,251.1571 104.932294,252.291577 103.528082,252.291577 Z" id="Shape"></path>
        </g>
    </g>
</svg>