<?xml version="1.0" encoding="UTF-8"?>
<svg width="27px" height="42px" viewBox="0 0 27 42" version="1.1" xmlns="http://www.w3.org/2000/svg" xmlns:xlink="http://www.w3.org/1999/xlink">
    <!-- Generator: Sketch 60.1 (88133) - https://sketch.com -->
    <title>Shape</title>
    <desc>Created with Sketch.</desc>
    <g id="Añadir-cuenta" stroke="none" stroke-width="1" fill="none" fill-rule="evenodd">
        <g id="Secondary-Account-01" transform="translate(-90.000000, -265.000000)" fill-rule="nonzero" stroke="#00377B">
            <path d="M112.41349,265.823841 L94.6426742,265.823841 C92.5403232,265.823841 90.8346422,267.529522 90.8346422,269.631873 L90.8346422,302.634817 C90.8346422,304.737168 92.5403232,306.442849 94.6426742,306.442849 L112.41349,306.442849 C114.515841,306.442849 116.221522,304.737168 116.221522,302.634817 L116.221522,269.631873 C116.221522,267.529522 114.515841,265.823841 112.41349,265.823841 Z M103.528082,302.291577 C102.12387,302.291577 100.989394,301.1571 100.989394,299.752889 C100.989394,298.348677 102.12387,297.214201 103.528082,297.214201 C104.932294,297.214201 106.06677,298.348677 106.06677,299.752889 C106.06677,301.1571 104.932294,302.291577 103.528082,302.291577 Z" id="Shape"></path>
        </g>
    </g>
</svg>