<?xml version="1.0" encoding="UTF-8"?>
<svg width="25px" height="25px" viewBox="0 0 25 25" version="1.1" xmlns="http://www.w3.org/2000/svg" xmlns:xlink="http://www.w3.org/1999/xlink">
    <!-- Generator: sketchtool 53.1 (72631) - https://sketchapp.com -->
    <title>58D3AAE5-EE73-460B-AC47-F385C969C7D5</title>
    <desc>Created with sketchtool.</desc>
    <defs>
        <polygon id="path-1" points="0 4.60487225e-05 18.8028968 4.60487225e-05 18.8028968 18.419489 0 18.419489"></polygon>
    </defs>
    <g id="Symbols" stroke="none" stroke-width="1" fill="none" fill-rule="evenodd">
        <g id="bottom-tab-bar/offers-on">
            <g id="Group-8" transform="translate(0.000000, 3.000000)">
                <g id="Group-3" transform="translate(0.000000, 0.000046)">
                    <mask id="mask-2" fill="white">
                        <use xlink:href="#path-1"></use>
                    </mask>
                    <g id="Clip-2"></g>
                    <path d="M13.5752555,4.60487225e-05 C13.4288206,4.60487225e-05 13.2810042,0.0203074866 13.1354902,0.0608303624 C12.2094504,0.319163696 11.9921004,1.04857546 11.8875698,1.39900624 C11.8617825,1.48557784 11.8373767,1.56754456 11.8134314,1.61497475 C11.8028402,1.63523619 11.7936304,1.65595811 11.7848812,1.67714052 C11.7139661,1.84982323 11.6435116,2.02434789 11.5725966,2.20117499 C10.8224629,4.06937166 10.1142335,5.83441919 7.43373737,6.58178996 L2.2854902,8.01804961 C1.42437908,8.25151664 0.76311943,8.7322653 0.379994058,9.4064186 C-0.0597712418,10.1800371 -0.118253119,11.1627169 0.206390374,12.3268286 C0.937644088,14.9483824 2.74643791,15.2311215 3.49058526,15.2311215 C3.97501783,15.2311215 4.32452763,15.123828 4.38945633,15.1026456 C4.40787582,15.0966592 4.42583482,15.0897519 4.44333333,15.0828446 L4.6068063,15.0372564 L7.51524361,17.7688666 C7.96191622,18.1883705 8.54535354,18.4195351 9.15872252,18.4195351 C9.67262626,18.4195351 10.1639661,18.2583645 10.5788651,17.9539825 C11.1475668,17.5363206 11.5026025,16.8925594 11.5518746,16.1884745 C11.6016072,15.483929 11.340511,14.7973425 10.835817,14.3037002 L10.060817,13.5457383 C10.4066429,13.4826515 10.7363518,13.4513384 11.0582323,13.4513384 C12.5580392,13.4513384 13.593675,14.13332 14.7927837,14.9230556 C14.9465865,15.0243627 15.1003892,15.1256699 15.2546524,15.2251352 C15.2652436,15.2320425 15.2753743,15.2384893 15.2859655,15.2444756 C15.2914914,15.2481595 15.2970172,15.2518434 15.3025431,15.2550668 C15.3697742,15.2988131 15.4356239,15.3425594 15.5005526,15.3863057 C15.5834403,15.4401827 15.6598812,15.4972831 15.7400059,15.5562255 C16.1102377,15.8292944 16.6176946,16.2036705 17.2402733,16.2036705 C17.3862478,16.2036705 17.5303803,16.1829486 17.668066,16.1419652 C17.6998396,16.132295 17.7311527,16.1212433 17.7620053,16.1083497 C18.6042365,15.753314 18.9744682,14.9833794 18.7276471,14.0983229 L15.144596,1.25211081 C14.9359952,0.503358586 14.3051277,4.60487225e-05 13.5752555,4.60487225e-05 M13.5752555,0.921020499 C13.9141741,0.921020499 14.1697445,1.1839587 14.2572371,1.49939245 L17.8402882,14.3456046 C17.9420559,14.70985 17.8863369,15.0565969 17.4042068,15.2596717 C17.3503298,15.2753283 17.2959923,15.2826961 17.2402733,15.2826961 C16.818467,15.2826961 16.369492,14.85168 16.0121539,14.6205154 C15.9430808,14.5740062 15.8726263,14.5270365 15.8007903,14.4809878 C15.77224,14.4611869 15.7538206,14.4487537 15.7538206,14.4487537 L15.7533601,14.4510561 C14.369596,13.5595529 13.0535235,12.5303639 11.0582323,12.5303639 C10.4895306,12.5303639 9.86557041,12.6141726 9.16977421,12.8084982 L8.2511022,13.0645291 L10.1920559,14.962197 C10.8445663,15.5999718 10.7690463,16.6715255 10.0336482,17.2116771 C9.77163102,17.4037002 9.46448604,17.4985606 9.15872252,17.4985606 C8.79263518,17.4985606 8.42838978,17.3631774 8.14565062,17.0974762 L4.8591533,14.0108304 L4.09888889,14.2226545 L4.10027035,14.2281803 C4.10027035,14.2281803 3.85160725,14.3101471 3.49058526,14.3101471 C2.77683007,14.3101471 1.62653298,13.9891875 1.09374926,12.0795469 C0.491892454,9.92216429 1.57818182,9.16420232 2.53323232,8.90494801 L7.68101901,7.46914884 C11.0803357,6.52100564 11.7881046,4.08042335 12.6358616,2.02895276 C12.8495276,1.60484403 12.7744682,1.11810903 13.3832323,0.948189245 C13.4495425,0.929769756 13.5140107,0.921020499 13.5752555,0.921020499" id="Fill-1" fill="#00C8FF" mask="url(#mask-2)"></path>
                </g>
                <path d="M23.1954932,11.5966726 C24.2071836,10.0093731 24.5520885,8.085918 23.9829263,6.24489008 C23.4133036,4.40386215 22.0424332,3.01134878 20.3114617,2.27272727" id="Stroke-4" stroke="#00C8FF" stroke-linecap="round" stroke-linejoin="round"></path>
                <path d="M20.4921569,10.0751307 C21.0277035,9.21908497 21.208675,8.18667261 20.9029115,7.19754605 C20.597148,6.20887998 19.8649733,5.45920677 18.9393939,5.05489899" id="Stroke-6" stroke="#00C8FF" stroke-linecap="round" stroke-linejoin="round"></path>
            </g>
        </g>
    </g>
</svg>