<svg xmlns="http://www.w3.org/2000/svg" width="20" height="20" viewBox="0 0 20 20">
    <g fill="none" fill-rule="evenodd" stroke="#00C8FF" stroke-linecap="round" stroke-linejoin="round" stroke-width="1.1">
        <path d="M10.471 10.961a4.971 4.971 0 0 0 4.976-4.98A4.971 4.971 0 0 0 10.47 1a4.97 4.97 0 0 0-4.974 4.98 4.97 4.97 0 0 0 4.974 4.981zM17.045 19.865c1.24 0 2.163-1.18 1.829-2.374a8.718 8.718 0 0 0-8.403-6.362A8.718 8.718 0 0 0 2.07 17.49c-.335 1.194.59 2.374 1.83 2.374h13.146z"/>
    </g>
</svg>
