<svg xmlns="http://www.w3.org/2000/svg" width="58" height="66" viewBox="0 0 58 66">
    <g fill="none" fill-rule="evenodd">
        <path fill="#FFF" d="M-132-128h320v568h-320z"/>
        <g stroke="#00377B" stroke-width="1.5">
            <path fill-rule="nonzero" d="M50.93 28.911h-2.99V19.94C47.94 9.498 39.442 1 29 1 18.558 1 10.06 9.498 10.06 19.94v8.971H7.07a5.982 5.982 0 0 0-5.981 5.98v23.925a5.982 5.982 0 0 0 5.98 5.98H50.93a5.982 5.982 0 0 0 5.981-5.98V34.892a5.982 5.982 0 0 0-5.98-5.981zm-12.959 0H20.03V19.94c0-4.947 4.024-8.972 8.971-8.972s8.971 4.025 8.971 8.972v8.971z"/>
            <path stroke-linecap="round" d="M29 41.85v11.4"/>
        </g>
    </g>
</svg>
