<?xml version="1.0" encoding="UTF-8"?>
<svg width="25px" height="25px" viewBox="0 0 25 25" version="1.1" xmlns="http://www.w3.org/2000/svg" xmlns:xlink="http://www.w3.org/1999/xlink">
    <!-- Generator: Sketch 53.2 (72643) - https://sketchapp.com -->
    <title>soporte tecnico</title>
    <desc>Created with Sketch.</desc>
    <g id="soporte-tecnico" stroke="none" stroke-width="1" fill="none" fill-rule="evenodd">
        <g id="Group-6-Copy" transform="translate(2.000000, 3.000000)">
            <path d="M13.2705788,12.3649045 L9.49670921,15.992532 C8.70524425,16.8172368 8.70524425,18.1544532 9.49670921,18.979158 C10.2881742,19.8038628 11.5714939,19.8038628 12.3629589,18.979158 L16.1390594,15.3497194 C16.9338722,14.5857768 16.9606232,13.3227268 16.1988687,12.5258166 L16.1023227,12.4248149 C15.3390849,11.6263528 14.0730769,11.5977979 13.2746148,12.3610357 C13.2732676,12.3623234 13.2719223,12.363613 13.2705788,12.3649045 Z" id="Path-Copy-2" fill="#00377B" fill-rule="nonzero" transform="translate(12.941572, 15.559225) scale(-1, 1) translate(-12.941572, -15.559225) "></path>
            <path d="M20.8383779,4.13052468 C20.7535705,3.78864435 20.3257471,3.67279121 20.0766252,3.92191331 L17.2613203,6.73722021 L14.6913513,6.30901793 L14.2631493,3.73904709 L17.0784542,0.923740201 C17.3290906,0.673103681 17.2083157,0.246037224 16.8641639,0.16047249 C15.0703347,-0.284009797 13.0951537,0.194925547 11.6931803,1.59652131 C10.1923911,3.09731159 9.77933336,5.27277601 10.4040312,7.16958713 L2.32498456,15.2486395 C1.3788513,16.1947735 1.3788513,17.728881 2.32498456,18.6750149 C3.27111781,19.6211489 4.80522424,19.6211489 5.75135749,18.6750149 L13.8235892,10.6027774 C15.7211562,11.2354264 17.8924544,10.8178251 19.4030874,9.30719105 C20.8065751,7.90370226 21.2847529,5.92549105 20.8383779,4.13052468 Z" id="Path-Copy" fill="#00377B" fill-rule="nonzero"></path>
            <polygon id="Path-Copy-3" fill="#00377B" fill-rule="nonzero" transform="translate(1.615383, 4.038462) scale(-1, 1) translate(-1.615383, -4.038462) " points="3.23076692 4.08927435 1.66619624 5.65384615 0.237967918 5.41587807 3.61932706e-14 3.98764872 1.56457068 2.42307692"></polygon>
            <path d="M2.77914,4.99266627 L7.30622098,9.69230769" id="Path-3" stroke="#00377B"></path>
        </g>
    </g>
</svg>