<?xml version="1.0" encoding="UTF-8"?>
<svg width="45px" height="45px" viewBox="0 0 45 45" version="1.1" xmlns="http://www.w3.org/2000/svg" xmlns:xlink="http://www.w3.org/1999/xlink">
    <!-- Generator: Sketch 55.2 (78181) - https://sketchapp.com -->
    <title>Group 2 Copy</title>
    <desc>Created with Sketch.</desc>
    <g id="Pagos" stroke="none" stroke-width="1" fill="none" fill-rule="evenodd">
        <g id="Group-2-Copy" fill="#37C846">
            <path d="M22.5005614,42.7531222 C11.4561183,42.7531222 2.47078971,33.6668349 2.47078971,22.4994323 C2.47078971,11.3320298 11.4561183,2.2457424 22.5005614,2.2457424 C33.5438817,2.2457424 42.5292103,11.3320298 42.5292103,22.4994323 C42.5292103,33.6668349 33.5438817,42.7531222 22.5005614,42.7531222 M22.5005614,0 C10.2312035,0 0.25,10.0922165 0.25,22.4994323 C0.25,34.9066482 10.2312035,45 22.5005614,45 C34.7699193,45 44.75,34.9066482 44.75,22.4994323 C44.75,10.0922165 34.7699193,0 22.5005614,0" id="Fill-1"></path>
            <path d="M29.3122117,16.5793614 L20.6430168,27.1174288 L16.6228901,22.9967742 C16.1830559,22.5520588 15.4818711,22.5621915 15.0600977,23.0260466 C14.637262,23.4899017 14.647886,24.2329706 15.0855954,24.6821895 L19.9439567,29.6607508 C20.151125,29.8724128 20.4241621,29.9883766 20.7110105,29.9883766 L20.7492569,29.9883766 L20.7577561,29.9883766 C21.0594781,29.9737404 21.3463265,29.8285042 21.5439331,29.5875698 L30.9791194,18.1184146 C31.3785823,17.6320423 31.3307743,16.8900993 30.8718169,16.4645235 C30.4139219,16.0457029 29.7148618,16.0929891 29.3122117,16.5793614" id="Fill-4"></path>
        </g>
    </g>
</svg>