<svg xmlns="http://www.w3.org/2000/svg" width="28" height="28" viewBox="0 0 28 28">
    <g fill="none" fill-rule="evenodd" stroke="#00377B" stroke-linecap="round" stroke-linejoin="round" stroke-width=".85">
        <path d="M20.604 11.02a7.02 7.02 0 0 0-14.04 0M11.57 22.569c-2.902-.51-5.29-2.281-5.491-4.43M7.563 18.138H5.58A1.58 1.58 0 0 1 4 16.558v-3.84c0-.873.708-1.58 1.58-1.58h1.983a.5.5 0 0 1 .5.5v6a.5.5 0 0 1-.5.5zM21.588 18.138h-1.984a.5.5 0 0 1-.5-.5v-6a.5.5 0 0 1 .5-.5h1.984c.872 0 1.58.707 1.58 1.58v3.84a1.58 1.58 0 0 1-1.58 1.58z"/>
        <path d="M11.57 22.94v-.741c0-.586.475-1.061 1.06-1.061h1.907c.586 0 1.06.475 1.06 1.06v.741c0 .586-.474 1.061-1.06 1.061H12.63a1.061 1.061 0 0 1-1.061-1.06z"/>
    </g>
</svg>
