<svg xmlns="http://www.w3.org/2000/svg" width="21" height="17" viewBox="0 0 21 17">
    <g fill="none" fill-rule="evenodd">
        <g fill="#00377D" fill-rule="nonzero">
            <path d="M17.072 15.95H3.928c-.242 0-.438.2-.438.448 0 .247.196.447.438.447h13.144c.242 0 .438-.2.438-.447a.443.443 0 0 0-.438-.448zM19.552.155H1.448C.764.155.21.721.21 1.42v11.168c0 .698.554 1.264 1.238 1.264h7.495v.902c0 .06.023.116.065.158a.215.215 0 0 0 .156.064h2.6c.12 0 .219-.099.22-.222v-.902h7.568c.684 0 1.238-.566 1.238-1.264V1.42c0-.698-.554-1.264-1.238-1.264zm.362 12.432c0 .204-.162.37-.362.37H1.448a.366.366 0 0 1-.362-.37V1.42c0-.204.162-.37.362-.37h18.104c.2 0 .362.166.362.37v11.168z"/>
        </g>
        <path d="M-8-10h36v36H-8z"/>
    </g>
</svg>
