<svg xmlns="http://www.w3.org/2000/svg" width="16" height="18" viewBox="0 0 16 18">
    <g fill="none" fill-rule="evenodd">
        <path fill="#00377D" fill-rule="nonzero" d="M3.756 1.518c.297.007.58.146.782.384.302.307.582.642.915 1.007l.89.973a1.2 1.2 0 0 1 .373.88 1.2 1.2 0 0 1-.374.881c-.36.394-.724.822-1.11 1.187-.112.122-.112.18-.059.302.255.631.582 1.225.974 1.766a12.441 12.441 0 0 0 2.777 2.778c.223.15.503.272.725.423a.208.208 0 0 0 .111.034.337.337 0 0 0 .196-.092l1.11-1.217c.206-.25.494-.399.8-.413.303.012.586.162.783.413l1.778 1.946c.219.235.337.56.326.895-.01.335-.15.65-.384.866-.333.4-.693.73-1 1.129-.412.484-.996.75-1.6.73h-.12a6.738 6.738 0 0 1-2.693-.886c-1.902-.998-3.581-2.439-4.92-4.222a15.564 15.564 0 0 1-2.387-4.379 6.03 6.03 0 0 1-.391-2.432c.025-.513.234-.994.582-1.338l1.111-1.216c.213-.237.501-.374.805-.385v-.014zm0-1.163a2.129 2.129 0 0 0-1.534.696L1.124 2.252A3.248 3.248 0 0 0 .236 4.37 7.18 7.18 0 0 0 .68 7.288a16.736 16.736 0 0 0 2.56 4.704c1.429 1.914 3.22 3.466 5.249 4.549a7.747 7.747 0 0 0 3.111.973h.182c.901.022 1.768-.378 2.382-1.1.143-.185.312-.365.494-.56.182-.194.306-.325.444-.486a2.486 2.486 0 0 0 .687-1.688 2.503 2.503 0 0 0-.625-1.717l-.888-.973-.89-.973a2.07 2.07 0 0 0-1.52-.774 2.14 2.14 0 0 0-1.564.76l-.689.753-.115-.068a11.338 11.338 0 0 1-2.511-2.505c-.21-.294-.4-.605-.57-.93.147-.155.285-.31.445-.486l.262-.292a2.416 2.416 0 0 0 .684-1.703c0-.647-.248-1.265-.684-1.702l-.888-.973-.316-.355c-.204-.234-.4-.453-.622-.672a2.087 2.087 0 0 0-1.52-.71L3.756.355z"/>
        <path d="M-16-15h46v46h-46z"/>
    </g>
</svg>
