<?xml version="1.0" encoding="utf-8"?>
<!-- Generator: Adobe Illustrator 24.0.0, SVG Export Plug-In . SVG Version: 6.00 Build 0)  -->
<svg version="1.1" id="Capa_1" xmlns="http://www.w3.org/2000/svg" xmlns:xlink="http://www.w3.org/1999/xlink" x="0px" y="0px"
	 viewBox="0 0 744 232" style="enable-background:new 0 0 744 232;" xml:space="preserve">
<style type="text/css">
	.st0{fill:#00377D;}
	.st1{fill:#FFFFFF;}
</style>
<g>
	<g>
		<path class="st0" d="M300.5,88.3c7.6,0,12.3,4.3,12.3,10.8c0,14.1-18.8,19.6-31.3,20.2c-0.2,1.3-0.2,2.9-0.2,4.2
			c0,7.5,3,12.6,9.9,12.6c8.2,0,13.6-4.7,17.3-8.7c0.8,0.5,1.3,1.8,1.3,3.2c0,1.8-0.6,3.6-1.8,4.9c-3.8,4.3-10.7,8.1-19.8,8.1
			c-11.5,0-16.4-7.8-16.4-19.7c0-16.6,10.3-35.7,28.6-35.7H300.5z M298.7,94.4c-8.1,0-14.3,8.3-16.5,18.5c15.9-1,22.1-7.2,22.1-13.2
			c0-3-2.2-5.3-5.5-5.3H298.7z"/>
		<path class="st0" d="M326.7,109.1c6.7-12.3,16.2-20.8,25.7-20.8c6.3,0,10.7,4.3,8.4,19.4c-0.8,5.8-1.9,10.9-3,18.4
			c-1.4,9.5-1.8,13.7-1.8,16c-1.9,1-7.5,1.7-9,1.7c-0.6,0-0.6-5.7,1.3-15.9c1-6,2.4-13.6,3.5-21c0.7-5.4,0.7-10.5-3.8-10.5
			c-7,0-20.8,11.9-25.9,40.9c-0.5,2.9-1.2,3.9-2.4,4.6c-1.4,0.8-3.7,1.3-7.9,1.4c1.4-7.2,3.6-20.8,5.2-31.8c1.7-11.9,2.2-19,2-21.2
			c1.3-0.7,7.5-2,8.7-2c0.7,0,1,4.2-0.6,15.9c-0.2,1.8-0.4,3.1-0.6,4.9H326.7z"/>
		<path class="st0" d="M394.1,83.3c1.1-7.9,1.7-12.9,1.8-15.6c2-0.4,5.3-0.8,8.3-0.8c1.2,0,1.6,1,0.7,7l-8.1,61.7
			c2.3,0.6,8.4,0.8,14.4,0.8c6.4,0,12.8-0.1,15.9-0.6l0.1,0.2c-0.5,2.6-2.8,5.5-5.2,6.5c-1.9,0.5-5.3,0.6-13.5,0.6
			c-10.9,0-17.7-0.6-20.7-1.2c-0.6-0.6-1.1-1.4-1.6-2.2L394.1,83.3z"/>
		<path class="st0" d="M443.3,88.3c1.1,0,1.3,1.1,0.7,5.7c-3,21.5-4.8,35.5-6.1,44c-0.2,2.3-0.6,2.9-1.6,3.5
			c-1.2,0.7-5.2,1.7-8.7,1.8c1.2-7.2,3.2-20,4.6-30.9c1.7-12.9,2.5-19.6,2.5-22.1c1.6-0.6,7.2-1.9,8.4-1.9H443.3z M453.1,63.2
			c0.7,0.7,0.6,1.3-0.4,2.4c-4.7,5.3-9.1,11.8-12.4,16.4c-1.4-0.4-2.2-1.2-3.1-1.9c-0.6-0.5-0.7-1.3,0.1-3.2
			c2-4.8,7.3-16.4,9.6-16.4C449.2,60.4,451.7,61.8,453.1,63.2z"/>
		<path class="st0" d="M460.5,109.1c6.7-12.3,16.2-20.8,25.7-20.8c6.3,0,10.7,4.3,8.4,19.4c-0.8,5.8-1.9,10.9-3,18.4
			c-1.4,9.5-1.8,13.7-1.8,16c-1.9,1-7.5,1.7-9,1.7c-0.6,0-0.6-5.7,1.3-15.9c1-6,2.4-13.6,3.5-21c0.7-5.4,0.7-10.5-3.9-10.5
			c-7,0-20.8,11.9-25.9,40.9c-0.5,2.9-1.2,3.9-2.4,4.6c-1.4,0.8-3.7,1.3-7.9,1.4c1.4-7.2,3.6-20.8,5.2-31.8c1.7-11.9,2.2-19,2-21.2
			c1.3-0.7,7.5-2,8.7-2c0.7,0,1,4.2-0.6,15.9c-0.2,1.8-0.4,3.1-0.6,4.9H460.5z"/>
		<path class="st0" d="M526.5,88.3c7.6,0,12.3,4.3,12.3,10.8c0,14.1-18.8,19.6-31.3,20.2c-0.2,1.3-0.2,2.9-0.2,4.2
			c0,7.5,3,12.6,9.9,12.6c8.2,0,13.6-4.7,17.3-8.7c0.8,0.5,1.3,1.8,1.3,3.2c0,1.8-0.6,3.6-1.8,4.9c-3.8,4.3-10.7,8.1-19.8,8.1
			c-11.5,0-16.4-7.8-16.4-19.7c0-16.6,10.3-35.7,28.6-35.7H526.5z M524.7,94.4c-8.1,0-14.3,8.3-16.5,18.5c15.9-1,22.1-7.2,22.1-13.2
			c0-3-2.2-5.3-5.5-5.3H524.7z"/>
		<path class="st0" d="M538,127.6c0-8.5,3.2-21.6,12.4-30.6c7.1-6.9,15.3-8.8,23-8.8c4.9,0,10.8,1.4,15,2.4
			c-1.1,4.9-3.8,21.5-5.4,35.5c-0.6,4.6-1.2,12.4-1.1,15.9c-2.3,1.1-6.7,1.7-8.3,1.7c-0.7,0-0.6-6.1,0.2-14c0.2-1.7,0.6-4.7,0.8-6.5
			c-7.2,13.5-17.4,20.4-26.3,20.4c-5.9,0-10.3-4.9-10.3-16V127.6z M552.8,135.8c8.3,0,21.5-14.8,24.9-35.2c0.2-1.1,0.6-3.5,0.8-4.4
			c-1.4-0.6-4.3-1.2-6.7-1.2c-5.8,0-11.5,1.7-16.5,7.9c-5.8,7.7-7.5,17.3-7.5,24.1c0,5.3,1.7,8.9,4.8,8.9H552.8z"/>
	</g>
	<g>
		<path class="st0" d="M630.7,69.4l32.7,82c0.6,1.5,2.1,2.6,3.7,2.7c1.7,0.1,3.2-0.7,4.1-2.2l10.6-18.4l25.8,25.8
			c0.8,0.8,1.9,1.3,3.1,1.3c1.1,0,2.2-0.5,3.1-1.3l12.6-12.6c1.7-1.7,1.7-4.4,0-6.1l-25.8-25.8l18.4-10.6c1.4-0.8,2.3-2.4,2.2-4.1
			c-0.1-1.7-1.2-3.1-2.7-3.7l-82-32.7c-1.6-0.6-3.4-0.3-4.7,1C630.4,66,630,67.8,630.7,69.4z M706.8,101.2l-15.5,9
			c-1.2,0.7-2,1.8-2.1,3.2c-0.2,1.3,0.3,2.7,1.2,3.6l26.7,26.7l-6.4,6.5l-26.7-26.7c-0.8-0.8-1.9-1.3-3.1-1.3c-0.2,0-0.4,0-0.6,0
			c-1.3,0.2-2.5,1-3.2,2.1l-9,15.5l-25.7-64.3L706.8,101.2z"/>
		<path class="st0" d="M610.9,50.2l9.6,9.6c0.8,0.8,2,1.3,3.1,1.3c1.1,0,2.2-0.4,3.1-1.3c1.7-1.7,1.7-4.4,0-6.1L617,44
			c-1.7-1.7-4.4-1.7-6.1,0C609.2,45.7,609.2,48.5,610.9,50.2z"/>
		<path class="st0" d="M602.3,78.3H616c2.4,0,4.3-1.9,4.3-4.3c0-2.4-1.9-4.3-4.3-4.3h-13.6c-2.4,0-4.3,1.9-4.3,4.3
			C598,76.4,600,78.3,602.3,78.3z"/>
		<path class="st0" d="M624.6,93.5c1.7-1.7,1.7-4.4,0-6.1c-1.7-1.7-4.4-1.7-6.1,0l-9.6,9.6c-1.7,1.7-1.7,4.4,0,6.1
			c0.8,0.8,2,1.3,3.1,1.3c1.1,0,2.2-0.4,3.1-1.3L624.6,93.5z"/>
		<path class="st0" d="M636.5,35.5v13.6c0,2.4,1.9,4.3,4.3,4.3c2.4,0,4.3-1.9,4.3-4.3V35.5c0-2.4-1.9-4.3-4.3-4.3
			C638.4,31.1,636.5,33.1,636.5,35.5z"/>
		<path class="st0" d="M654.2,57.8c0.8,0.8,2,1.3,3.1,1.3c1.1,0,2.2-0.4,3.1-1.3l9.6-9.6c1.7-1.7,1.7-4.4,0-6.1
			c-1.7-1.7-4.4-1.7-6.1,0l-9.6,9.6C652.5,53.3,652.5,56.1,654.2,57.8z"/>
	</g>
	<path id="XMLID_21_" class="st0" d="M253,193.7c0,11.3-9.3,20.6-20.6,20.6h-196c-11.3,0-20.6-9.3-20.6-20.6V38.3
		c0-11.3,9.3-20.6,20.6-20.6h196c11.3,0,20.6,9.3,20.6,20.6V193.7z"/>
	<g id="XMLID_11_">
		<path id="XMLID_12_" class="st1" d="M54.7,78.6c1.7-2,3.9-3.5,5.9-3.5h2.9v11.4H81v5.2c0,2.6-2.3,6-7.5,6H63.5v19.8
			c0,6.6,2.9,9.1,8,9.1c4,0,7.1-0.6,9.1-1.8H81v4.5c0,5.2-3.7,8.4-11.1,8.4c-12.8,0-19-6.9-19-18.8V88.7
			C51,83.7,51.9,81.8,54.7,78.6 M96.4,83c4,0,7.4-3.4,7.4-7.4c0-4-3.4-7.3-7.4-7.3c-4,0-7.3,3.3-7.3,7.3C89,79.7,92.3,83,96.4,83
			 M105.3,137.8c5.4,0,7.5-2.1,7.5-7.6v-2.7h-2.3c-5.5,0-7.7-1.6-7.7-6.7V97.1c0-6.4-3.4-9.4-9-9.4h-3.6V122
			C90.2,132.2,95.5,137.8,105.3,137.8 M204.7,112.9c0-10.1-3.8-16.2-12-16.2c-7.2,0-10.9,6-10.9,14.4c0,10,3.7,16,12,16
			C201.1,127.1,204.7,121.2,204.7,112.9 M168.7,112.9c0-15.2,8.8-27.4,25.1-27.4c15.2,0,23.9,12.2,23.9,25.6
			c0,15.2-8.7,27.3-25.1,27.3C177.5,138.4,168.7,126.3,168.7,112.9 M171.2,80.1h0.3c4.1-5.8,12.1-10.7,23.1-10.7
			c10.1,0,17,4.8,21.8,10.7h0.2v-5.3c0-1.6-0.8-4.3-1.9-5.8c-3.9-5.2-11.8-9.5-21.2-9.5c-9.4,0-17.9,5.5-20.6,9.8
			c-1,1.6-1.7,3.9-1.7,5.3V80.1z M198.3,147.5H198c-6.2,9.6-18.2,17.7-34.8,17.7c-15.2,0-25.6-8.1-32.9-17.9h-0.4v6.4
			c0,2.7,1.2,7.2,2.9,9.7c5.8,8.6,17.9,15.8,31.9,15.8c14.3,0,27.1-9.2,31.1-16.3c1.5-2.6,2.5-6.4,2.5-8.8V147.5z M156.7,112.8H150
			l0.3,1.2c0,0,0.8,3.3,0.8,7.2v4.1c0,2-0.4,3.8-5.5,3.8c-7.4,0-16.1-2.9-16.1-16.8c0-8.9,6.8-15.3,16.2-15.3
			c5.9,0,11.6,1.6,14.8,4.1l0.3,0.2h1.7v-4.4c0-5.3-4.8-10.9-15.4-10.9c-17.9,0-30.5,11.4-30.5,27.7c0,17.4,14,26.4,27.9,26.4
			c12.7,0,18.9-4.4,18.9-13.6v-8.1C163.1,115.5,160,112.8,156.7,112.8"/>
	</g>
</g>
</svg>
