<svg xmlns="http://www.w3.org/2000/svg" xmlns:xlink="http://www.w3.org/1999/xlink" width="25" height="25" viewBox="0 0 25 25">
    <defs>
        <path id="a" d="M0 .466h18.996v19.093H0z"/>
    </defs>
    <g fill="none" fill-rule="evenodd">
        <g transform="translate(1 4)">
            <mask id="b" fill="#fff">
                <use xlink:href="#a"/>
            </mask>
            <path fill="#00C8FF" d="M4.231.466c-.638 0-1.247.257-1.763.745l-.012.01-.011.012-.69.69-.675.675A3.304 3.304 0 0 0 .016 4.854c-.073 1.02.103 2.05.555 3.226.659 1.778 1.659 3.457 3.144 5.272 1.823 2.195 4.003 3.907 6.487 5.094.968.469 2.275 1.02 3.761 1.108.087.004.152.005.218.005 1.117 0 2.059-.398 2.798-1.181l.022-.022.02-.024c.181-.215.397-.425.625-.648.185-.181.377-.369.57-.576 1.01-1.027 1.043-2.512.076-3.54l-.012-.012-.012-.012-1.478-1.478-.72-.72c-.494-.517-1.122-.802-1.77-.802-.65 0-1.267.274-1.786.793l-.926.926-.044.044a4.01 4.01 0 0 1-.303-.162c-1.119-.718-2.13-1.639-3.168-2.89a8.57 8.57 0 0 1-.806-1.23c.22-.212.431-.427.638-.638l.328-.332c1.054-1.054 1.054-2.526 0-3.58l-.445-.445-.659-.66c-.137-.137-.267-.27-.394-.4a17.416 17.416 0 0 0-.764-.758C5.479.731 4.862.466 4.23.466m0 1.118c.34 0 .677.146.97.44.38.344.724.724 1.138 1.137l1.104 1.104c.62.62.62 1.379 0 2-.45.448-.897.93-1.38 1.345-.138.137-.138.207-.069.345.31.724.724 1.379 1.207 2 1 1.207 2.104 2.276 3.449 3.138.276.172.62.31.896.482.05.025.093.036.137.036.079 0 .154-.037.242-.104l1.38-1.38c.31-.31.655-.465.995-.465.34 0 .677.155.97.465l2.208 2.207c.551.586.551 1.38-.07 2-.413.448-.862.828-1.241 1.277-.55.582-1.222.83-1.986.83-.05 0-.1 0-.152-.003-1.173-.07-2.276-.483-3.345-1-2.38-1.138-4.414-2.759-6.104-4.794C3.34 11.127 2.304 9.541 1.615 7.68c-.345-.897-.552-1.794-.483-2.76a2.188 2.188 0 0 1 .724-1.516l1.38-1.38c.31-.293.655-.44.995-.44" mask="url(#b)"/>
        </g>
        <g fill-rule="nonzero" stroke="#FFF">
            <path stroke-linecap="square" d="M12.789 4.556h9.12"/>
            <path d="M20.665 2.633v3.832l1.872-1.916-1.872-1.916z"/>
            <path stroke-linecap="square" d="M23.211 9.444h-9.12"/>
            <path d="M15.206 7.56v3.832l-1.872-1.916 1.872-1.916z"/>
        </g>
    </g>
</svg>
