<svg xmlns="http://www.w3.org/2000/svg" width="25" height="25" viewBox="0 0 25 25">
    <g fill="none" fill-rule="evenodd">
        <path stroke="#FFF" stroke-linecap="round" stroke-linejoin="round" d="M12.691 3.554h6.381c.423 0 .766.343.766.766v17.319a.767.767 0 0 1-.766.766H6.311a.767.767 0 0 1-.767-.766V10.57"/>
        <path fill="#FFF" d="M5.423 8.706h4.83a.422.422 0 0 0 .422-.423v-4.86a.424.424 0 0 0-.723-.298l-4.83 4.86a.425.425 0 0 0 .3.721"/>
        <path stroke="#FFF" stroke-linecap="round" stroke-linejoin="round" stroke-width=".771" d="M13.941 16.137c-.299.263-.678.395-1.138.395-.557 0-.997-.146-1.32-.439-.324-.292-.486-.697-.486-1.214h-.237c0 .577.17 1.03.51 1.36.34.33.82.506 1.44.53v.822h.242v-.827c.51-.029.917-.188 1.22-.476.303-.289.455-.666.455-1.132 0-.234-.035-.438-.103-.61a1.397 1.397 0 0 0-.315-.471 2.03 2.03 0 0 0-.531-.371 7.884 7.884 0 0 0-.923-.367c-.402-.138-.713-.275-.934-.411-.221-.136-.38-.288-.475-.455-.095-.167-.143-.394-.143-.681 0-.404.143-.734.429-.989.286-.255.666-.382 1.14-.382.49 0 .876.151 1.158.455.283.303.424.703.424 1.201h.238c0-.568-.147-1.017-.44-1.346-.293-.33-.709-.51-1.248-.539v-.822h-.242v.822c-.503.018-.912.17-1.226.46-.313.288-.47.671-.47 1.149 0 .293.054.542.16.747.107.205.272.384.495.538.223.154.57.312 1.04.475.47.162.825.317 1.065.463.24.146.41.306.512.48.1.174.151.395.151.66 0 .387-.149.711-.448.975z"/>
    </g>
</svg>
