<svg xmlns="http://www.w3.org/2000/svg" xmlns:xlink="http://www.w3.org/1999/xlink" width="25" height="25" viewBox="0 0 25 25">
    <defs>
        <path id="a" d="M0 0h18.803v18.42H0z"/>
    </defs>
    <g fill="none" fill-rule="evenodd">
        <g transform="translate(0 3)">
            <mask id="b" fill="#fff">
                <use xlink:href="#a"/>
            </mask>
            <path fill="#FFF" d="M13.575 0c-.146 0-.294.02-.44.06-.926.26-1.143.989-1.247 1.339-.026.087-.05.169-.075.216a.758.758 0 0 0-.028.062l-.212.524c-.75 1.868-1.459 3.633-4.14 4.38L2.286 8.019c-.86.234-1.522.714-1.905 1.388-.44.774-.498 1.757-.174 2.92.732 2.622 2.54 2.905 3.285 2.905.484 0 .834-.107.898-.128a.93.93 0 0 0 .054-.02l.164-.046 2.908 2.732c.447.42 1.03.65 1.644.65a2.395 2.395 0 0 0 2.393-2.231 2.396 2.396 0 0 0-.716-1.884l-.775-.758c.346-.063.675-.095.997-.095 1.5 0 2.536.682 3.735 1.472.154.101.307.203.462.302l.031.02.017.01.198.131c.082.054.159.111.239.17.37.273.878.648 1.5.648a1.5 1.5 0 0 0 .522-.096c.842-.355 1.212-1.125.966-2.01L15.145 1.252C14.936.503 14.305 0 13.575 0m0 .921c.34 0 .595.263.682.578l3.583 12.847c.102.364.046.71-.436.914a.583.583 0 0 1-.164.023c-.422 0-.87-.431-1.228-.662-.069-.047-.14-.094-.211-.14l-.047-.032v.002c-1.384-.891-2.7-1.92-4.696-1.92-.568 0-1.192.083-1.888.277l-.919.257 1.941 1.897a1.48 1.48 0 0 1-2.046 2.135l-3.287-3.086-.76.212.001.005s-.248.082-.61.082c-.713 0-1.863-.32-2.396-2.23-.602-2.158.484-2.916 1.44-3.175L7.68 7.469c3.4-.948 4.107-3.389 4.955-5.44.214-.424.138-.91.747-1.08a.718.718 0 0 1 .192-.028" mask="url(#b)"/>
        </g>
        <path stroke="#FFF" stroke-linecap="round" stroke-linejoin="round" d="M23.195 14.597c1.012-1.588 1.357-3.511.788-5.352-.57-1.841-1.94-3.234-3.672-3.972M20.492 13.075c.536-.856.717-1.888.41-2.877-.305-.99-1.037-1.739-1.963-2.143"/>
    </g>
</svg>
