<svg xmlns="http://www.w3.org/2000/svg" width="25" height="25" viewBox="0 0 25 25">
    <g fill="none" fill-rule="evenodd" stroke="#00C8FF" stroke-linecap="round" stroke-linejoin="round">
        <path d="M4.894 8.489c-.247 0-.548.166-.67.37l-2.132 3.527a.784.784 0 0 0 0 .74l2.133 3.527c.12.203.422.37.669.37h4.263c.245 0 .547-.167.669-.37l2.132-3.528a.79.79 0 0 0 0-.739L9.826 8.86c-.122-.204-.424-.37-.669-.37H4.894zM14.753 3c-.246 0-.547.167-.669.37l-2.132 3.528a.781.781 0 0 0 0 .738l2.132 3.528c.122.204.423.37.67.37h4.262c.246 0 .547-.166.67-.37l2.132-3.528a.79.79 0 0 0 0-.738L19.686 3.37c-.123-.204-.424-.371-.67-.371h-4.263zM14.753 14.466c-.246 0-.547.167-.669.371l-2.132 3.527a.782.782 0 0 0 0 .739l2.132 3.527c.122.204.423.37.67.37h4.262c.246 0 .547-.166.67-.37l2.132-3.527a.79.79 0 0 0 0-.74l-2.132-3.526c-.123-.204-.424-.37-.67-.37h-4.263z"/>
    </g>
</svg>
