<svg xmlns="http://www.w3.org/2000/svg" width="25" height="25" viewBox="0 0 25 25">
    <g fill="none" fill-rule="evenodd" stroke-linecap="round" stroke-linejoin="round">
        <path stroke="#00C8FF" d="M18.803 13.19a3.533 3.533 0 0 0 3.538-3.538 3.533 3.533 0 0 0-3.538-3.538 3.533 3.533 0 0 0-3.538 3.538 3.533 3.533 0 0 0 3.538 3.538z"/>
        <path stroke="#00C8FF" d="M17.912 19.515h5.91c.741 0 1.313-.684 1.15-1.407a6.318 6.318 0 0 0-6.169-4.918c-1.38 0-2.65.444-3.688 1.19"/>
        <path stroke="#FFF" d="M8.068 13.288a4.638 4.638 0 0 0 4.644-4.644A4.638 4.638 0 0 0 8.068 4a4.638 4.638 0 0 0-4.644 4.644 4.638 4.638 0 0 0 4.644 4.644zM2.242 15.86a7.967 7.967 0 0 0-2.179 3.584c-.308 1.08.548 2.147 1.707 2.147h12.885c.975 0 1.725-.868 1.51-1.788-.837-3.582-4.138-6.247-8.097-6.247a8.42 8.42 0 0 0-5.826 2.303"/>
    </g>
</svg>
